# AST/ASF file generated using VICON BodyLanguage
# -----------------------------------------------
:version 1.10
:name VICON
:units
  mass 1.0
  length 0.45
  angle deg
:documentation
   .ast/.asf automatically generated from VICON data using
   VICON BodyBuilder and BodyLanguage model FoxedUp or BRILLIANT.MOD
:root
   order TX TY TZ RX RY RZ
   axis XYZ
   position 0 0 0  
   orientation 0 0 0 
:bonedata
  begin
     id 1 
     name lhipjoint
     direction 0.653368 -0.678499 0.335782 
     length 2.51848 
     axis 0 0 0  XYZ
  end
  begin
     id 2 
     name lfemur
     direction 0.34202 -0.939693 0  
     length 6.57749  
     axis 0 0 20  XYZ
    dof rx ry rz
    limits (-160.0 20.0)
           (-70.0 70.0)
           (-60.0 70.0)
  end
  begin
     id 3 
     name ltibia
     direction 0.34202 -0.939693 0   
     length 7.94618   
     axis 0 0 20   XYZ
    dof rx
    limits (-10.0 170.0)
  end
  begin
     id 4 
     name lfoot
     direction 0.0811271 -0.222895 0.971461   
     length 2.31339   
     axis -90 7.62852e-016 20   XYZ
    dof rx rz
    limits (-45.0 90.0)
           (-70.0 20.0)
  end
  begin
     id 5 
     name ltoes
     direction 1.53568e-011 -4.21885e-011 1   
     length 1.15935   
     axis -90 7.62852e-016 20   XYZ
    dof rx
    limits (-90.0 20.0)
  end
  begin
     id 6 
     name rhipjoint
     direction -0.640058 -0.688614 0.340788   
     length 2.48149  
     axis 0 0 0  XYZ 
  end
  begin
     id 7 
     name rfemur
     direction -0.34202 -0.939693 0   
     length 6.57875   
     axis 0 0 -20   XYZ
    dof rx ry rz
    limits (-160.0 20.0)
           (-70.0 70.0)
           (-70.0 60.0)
  end
  begin
     id 8 
     name rtibia
     direction -0.34202 -0.939693 0   
     length 7.977   
     axis 0 0 -20   XYZ
    dof rx
    limits (-10.0 170.0)
 end
 begin
     id 9 
     name rfoot
     direction -0.0979793 -0.269196 0.958089   
     length 2.19857  
     axis -90 -7.62852e-016 -20   XYZ
    dof rx rz
    limits (-45.0 90.0)
           (-20.0 70.0)
  end
  begin
     id 10 
     name rtoes
     direction -1.53556e-011 -4.21868e-011 1   
     length 1.09838   
     axis -90 -7.62852e-016 -20   XYZ
    dof rx
    limits (-90.0 20.0)
  end
  begin
     id 11 
     name lowerback
     direction 0.0149039 0.998517 -0.0523597   
     length 2.10809   
     axis 0 0 0   XYZ
    dof rx ry rz
    limits (-20.0 45.0)
           (-30.0 30.0)
           (-30.0 30.0)
  end
  begin
     id 12 
     name upperback
     direction -0.00882659 0.999418 -0.0329624   
     length 2.1102   
     axis 0 0 0   XYZ
    dof rx ry rz
    limits (-20.0 45.0)
           (-30.0 30.0)
           (-30.0 30.0)
  end
  begin
     id 13 
     name thorax
     direction -0.0165585 0.999826 -0.0085833   
     length 2.11039   
     axis 0 0 0   XYZ
    dof rx ry rz
    limits (-20.0 45.0)
           (-30.0 30.0)
           (-30.0 30.0)
  end
  begin
     id 14 
     name lowerneck
     direction -0.0130877 0.999911 0.00260353   
     length 1.73253   
     axis 0 0 0   XYZ
    dof rx ry rz
    limits (-20.0 45.0)
           (-30.0 30.0)
           (-30.0 30.0)
  end
  begin
     id 15 
     name upperneck
     direction -0.0348454 0.928205 -0.370435   
     length 1.66692   
     axis 0 0 0   XYZ
    dof rx ry rz
    limits (-20.0 45.0)
           (-30.0 30.0)
           (-30.0 30.0)
  end
  begin
     id 16
     name head
     direction -0.00807754 0.992494 -0.122026  
     length 1.72765  
     axis 0 0 0   XYZ
    dof rx ry rz
    limits (-20.0 45.0)
           (-30.0 30.0)
           (-30.0 30.0)
  end
  begin
     id 17 
     name lclavicle
     direction 0.987582 0.144023 0.0627671  
     length 3.49235  
     axis 0 0 0   XYZ
    dof ry rz
    limits (-20.0 10.0)
           (0.0 20.0)
  end
  begin
     id 18 
     name lhumerus
     direction 1 -4.48958e-011 -1.45183e-018   
     length 5.41917   
     axis 180 -30 -90   XYZ
    dof rx ry rz
    limits (-60.0 90.0)
           (-90.0 90.0)
           (-90.0 90.0)
  end
  begin
     id 19
     name lradius
     direction 1 -4.48999e-011 5.75106e-027   
     length 2.44373   
     axis 180 -30 -90   XYZ
    dof rx
    limits (-10.0 170.0)
  end
  begin
     id 20
     name lwrist
     direction 1 -4.48987e-011 1.53461e-026   
     length 1.22186   
     axis -1.09697e-014 90 90   XYZ
    dof ry
    limits (-180.0 0.0)
 end
  begin
     id 21 
     name lhand
     direction 1 -4.48881e-011 3.06923e-026   
     length 0.727502   
     axis -1.95843e-014 90 90   XYZ
    dof rx rz
    limits (-90.0 90.0)
           (-45.0 45.0)
  end
  begin
     id 22 
     name lfingers
     direction 1 -4.48907e-011 6.13845e-026   
     length 0.586531   
     axis -3.91686e-014 90 90   XYZ
    dof rx
    limits (0.0 90.0)
  end
  begin
     id 23
     name lthumb
     direction 0.707107 -6.3487e-011 0.707107   
     length 0.842145   
     axis -90 45 2.85299e-015   XYZ
    dof rx rz
    limits (-45.0 45.0)
           (-45.0 45.0)
  end
  begin
     id 24 
     name rclavicle
     direction -0.980998 0.169556 0.0943023   
     length 3.29272  
     axis 0 0 0   XYZ 
    dof ry rz
    limits (-10.0 20.0)
           (-20.0 0.0)
  end
  begin
     id 25 
     name rhumerus
     direction -1 -1.83355e-005 2.45537e-005  
     length 5.58976   
     axis 180 30 90   XYZ
    dof rx ry rz
    limits (-90.0 60.0)
           (-90.0 90.0)
           (-90.0 90.0)
  end
  begin
     id 26 
     name rradius
     direction -1 -4.48967e-011 5.97228e-027   
     length 2.4806   
     axis 180 30 90   XYZ
    dof rx
    limits (-10.0 170.0)
  end
  begin
     id 27 
     name rwrist
     direction -1 -4.48963e-011 1.53461e-026   
     length 1.2403   
     axis -1.09697e-014 -90 -90   XYZ
    dof ry
    limits (-180.0 0.0)
  end
  begin
     id 28
     name rhand
     direction -1 -4.48881e-011 3.06923e-026   
     length 0.816009   
     axis -1.95843e-014 -90 -90   XYZ
    dof rx rz
    limits (-90.0 90.0)
           (-45.0 45.0)
  end
  begin
     id 29
     name rfingers
     direction -1 -4.49018e-011 6.13845e-026   
     length 0.657887   
     axis -3.91686e-014 -90 -90   XYZ
    dof rx
    limits (0.0 90.0)
  end
  begin
     id 30
     name rthumb
     direction -0.707107 -6.34872e-011 0.707107   
     length 0.944599   
     axis -90 -45 -2.85299e-015   XYZ
    dof rx rz
    limits (-45.0 45.0)
           (-45.0 45.0)
  end
:hierarchy
  begin
    root lhipjoint rhipjoint lowerback
    lhipjoint lfemur
    lfemur ltibia
    ltibia lfoot
    lfoot ltoes
    rhipjoint rfemur
    rfemur rtibia
    rtibia rfoot
    rfoot rtoes
    lowerback upperback
    upperback thorax
    thorax lowerneck lclavicle rclavicle
    lowerneck upperneck
    upperneck head
    lclavicle lhumerus
    lhumerus lradius
    lradius lwrist
    lwrist lhand lthumb
    lhand lfingers
    rclavicle rhumerus
    rhumerus rradius
    rradius rwrist
    rwrist rhand rthumb
    rhand rfingers
  end

#!OML:ASF F:\VICON\USERDATA\INSTALL\rory3\rory3.ASF
:FULLY-SPECIFIED
:DEGREES
46
root -2.88036 15.7426 -29.4688 14.8954 25.0422 2.97169
lowerback -4.81036 -1.14907 1.22946
upperback -8.07546 -1.38246 2.16622
thorax -5.66597 -0.657497 1.56512
lowerneck -3.46553 -18.0951 -14.7518
upperneck 27.5027 -26.5252 8.52783
head 12.9325 -12.613 1.64979
rclavicle -2.83268e-014 1.66979e-014
rhumerus -74.3044 -57.8595 56.7062
rradius 12.8076
rwrist 76.0906
rhand -8.18649 11.8904
rfingers 7.12502
rthumb 17.7294 -17.3214
lclavicle -2.83268e-014 1.66979e-014
lhumerus -4.54218 1.05504 3.00833
lradius 18.9488
lwrist -46.2338
lhand 3.71897 26.7261
lfingers 7.12502
lthumb 29.1474 54.4644
rfemur -46.7305 -5.46236 29.1837
rtibia 50.681
rfoot -38.8605 -33.9557
rtoes 35.8855
lfemur -36.4558 17.7195 -16.0835
ltibia 73.745
lfoot 0.881336 35.7596
ltoes -31.0509
47
root -2.8869 15.7134 -29.3629 14.4501 22.471 2.99206
lowerback -3.26205 -1.06025 1.09833
upperback -8.58034 -1.23887 1.84175
thorax -7.10066 -0.588908 1.34607
lowerneck -2.89136 -17.7278 -14.4085
upperneck 28.0297 -26.2318 8.59256
head 12.9568 -12.4742 1.74666
rclavicle -2.70347e-014 -1.74931e-014
rhumerus -75.842 -57.0132 57.8584
rradius 12.7654
rwrist 77.9805
rhand -8.30058 11.457
rfingers 7.12502
rthumb 17.6196 -17.7646
lclavicle -2.70347e-014 -1.74931e-014
lhumerus -3.86441 -2.70527 3.01005
lradius 19.7783
lwrist -42.7712
lhand 5.25308 28.5779
lfingers 7.12502
lthumb 30.6113 56.0528
rfemur -45.8884 -3.16684 28.846
rtibia 51.0158
rfoot -39.7634 -33.4865
rtoes 36.696
lfemur -36.3919 17.7416 -16.4749
ltibia 74.0503
lfoot 0.663153 35.7672
ltoes -31.8391
48
root -2.86964 15.6807 -29.2841 14.6163 19.7088 2.82479
lowerback -3.55829 -0.837359 0.931774
upperback -8.55014 -0.950943 1.92221
thorax -6.89729 -0.43501 1.50902
lowerneck -1.79821 -17.4033 -14.5276
upperneck 27.426 -25.9681 9.196
head 12.5801 -12.3964 2.15094
rclavicle 7.95139e-015 -9.54166e-015
rhumerus -77.1563 -56.71 58.9688
rradius 12.7041
rwrist 78.8014
rhand -8.11111 11.2191
rfingers 7.12502
rthumb 17.8019 -17.9861
lclavicle 7.95139e-015 -9.54166e-015
lhumerus -3.57203 -3.67596 3.31432
lradius 19.1881
lwrist -45.3926
lhand 3.41103 25.9673
lfingers 7.12502
lthumb 28.8533 53.7562
rfemur -45.9585 -1.40966 28.7807
rtibia 51.3375
rfoot -39.7636 -32.7029
rtoes 37.108
lfemur -37.2567 17.4369 -17.1645
ltibia 74.3212
lfoot -1.25636 35.1616
ltoes -30.4973
49
root -2.84842 15.6511 -29.2048 14.7168 16.8525 2.55795
lowerback -3.57508 -0.622111 1.11504
upperback -8.22966 -0.679157 1.93393
thorax -6.54821 -0.316667 1.40675
lowerneck -2.67826 -17.3711 -14.1284
upperneck 27.7154 -25.9143 9.13592
head 12.7874 -12.2915 2.00027
rclavicle -1.39149e-014 -1.66979e-014
rhumerus -76.1935 -56.0671 56.8263
rradius 12.5917
rwrist 77.5064
rhand -7.8774 10.7797
rfingers 7.12502
rthumb 18.0268 -18.4049
lclavicle -1.39149e-014 -1.66979e-014
lhumerus -2.91699 -4.17191 3.92703
lradius 19.6544
lwrist -43.6055
lhand 4.77862 26.8847
lfingers 7.12502
lthumb 30.1588 54.4431
rfemur -45.9476 0.379682 28.7693
rtibia 51.6329
rfoot -39.0573 -32.2111
rtoes 36.6367
lfemur -38.0605 17.1628 -17.6933
ltibia 74.6046
lfoot -3.15565 33.065
ltoes -27.0465
50
root -2.83143 15.629 -29.1164 14.5331 14.4923 2.15424
lowerback -3.47906 -0.546638 1.45143
upperback -7.89008 -0.589388 1.98242
thorax -6.24261 -0.295072 1.26344
lowerneck -3.24911 -17.2877 -13.7538
upperneck 27.8727 -25.793 9.05849
head 12.8734 -12.1834 1.89556
rclavicle 4.42296e-015 1.19271e-014
rhumerus -80.0326 -56.1856 60.5014
rradius 12.5708
rwrist 79.7693
rhand -7.77179 11.7865
rfingers 7.12502
rthumb 18.1284 -17.3887
lclavicle 4.42296e-015 1.19271e-014
lhumerus -2.28574 -6.63988 4.4615
lradius 20.3304
lwrist -40.54
lhand 5.82986 29.4396
lfingers 7.12502
lthumb 31.1612 56.8103
rfemur -45.481 2.23714 28.9008
rtibia 51.8571
rfoot -38.7345 -31.8816
rtoes 36.0151
lfemur -38.5801 16.5991 -17.72
ltibia 74.8002
lfoot -4.6509 29.7744
ltoes -21.6224
51
root -2.81065 15.6059 -29.0402 14.5933 12.0994 1.95358
lowerback -3.47601 -0.640309 1.59654
upperback -7.6852 -0.720267 2.14863
thorax -6.02364 -0.366605 1.35497
lowerneck -3.39901 -16.9473 -13.892
upperneck 27.7136 -25.2998 9.21754
head 12.8144 -11.9698 2.05406
rclavicle 3.52843e-015 -3.18055e-015
rhumerus -86.2863 -56.9516 67.2852
rradius 12.632
rwrist 84.0762
rhand -7.49369 13.1266
rfingers 7.12502
rthumb 18.3959 -16.0235
lclavicle 3.52843e-015 -3.18055e-015
lhumerus -2.2825 -6.82147 4.88424
lradius 20.0715
lwrist -41.5854
lhand 5.36043 28.0963
lfingers 7.12502
lthumb 30.7137 55.552
rfemur -45.2487 3.96716 28.7837
rtibia 52.0867
rfoot -38.4683 -31.0691
rtoes 35.9311
lfemur -39.3089 15.6996 -18.0035
ltibia 74.8501
lfoot -6.32158 26.3978
ltoes -14.7899
52
root -2.79652 15.5724 -28.9777 15.2192 8.57085 1.58781
lowerback -2.47283 -0.246686 1.5733
upperback -8.64704 -0.13988 2.14469
thorax -7.6495 -0.0794796 1.37551
lowerneck -1.45852 -16.398 -13.4822
upperneck 27.3788 -24.6817 9.12674
head 12.1386 -11.8022 2.3035
rclavicle -2.14687e-014 -4.37326e-014
rhumerus -84.3034 -55.7262 65.0681
rradius 12.5578
rwrist 84.0773
rhand -7.15651 12.8296
rfingers 7.12502
rthumb 18.7203 -16.2896
lclavicle -2.14687e-014 -4.37326e-014
lhumerus -2.0597 -9.85371 5.2144
lradius 20.3548
lwrist -40.8421
lhand 5.24697 27.863
lfingers 7.12502
lthumb 30.6055 55.3389
rfemur -45.7491 6.16363 28.7166
rtibia 52.2581
rfoot -37.188 -30.2839
rtoes 35.011
lfemur -40.7244 15.7619 -18.484
ltibia 74.9109
lfoot -6.95897 23.5237
ltoes -12.5031
53
root -2.75986 15.5635 -28.8964 15.3184 6.64379 1.40037
lowerback -2.59571 -0.468229 1.98095
upperback -8.17644 -0.446877 2.32039
thorax -7.06597 -0.255405 1.33491
lowerneck -2.02074 -16.0889 -13.2733
upperneck 27.0644 -24.1759 9.2087
head 12.0296 -11.5384 2.3546
rclavicle -1.38155e-014 7.95139e-015
rhumerus -87.1658 -56.2502 67.5269
rradius 12.5421
rwrist 85.5045
rhand -6.99756 12.2675
rfingers 7.12502
rthumb 18.8732 -16.8369
lclavicle -1.38155e-014 7.95139e-015
lhumerus -1.95685 -10.9726 5.85668
lradius 20.7474
lwrist -39.0905
lhand 5.82256 29.2904
lfingers 7.12502
lthumb 31.1542 56.6624
rfemur -45.6332 7.17078 28.7105
rtibia 52.3929
rfoot -36.3447 -30.4822
rtoes 32.9599
lfemur -41.4638 14.133 -18.6015
ltibia 74.7207
lfoot -7.62382 21.8484
ltoes -14.911
54
root -2.72491 15.5559 -28.8119 15.4271 4.17055 0.717996
lowerback -2.55772 -0.262579 2.72398
upperback -8.17589 -0.162112 2.33906
thorax -7.09638 -0.164287 0.93033
lowerneck -2.13403 -16.0732 -13.2134
upperneck 27.6314 -24.2208 9.05454
head 12.2541 -11.5534 2.26281
rclavicle 6.4605e-016 -2.06736e-014
rhumerus -87.5346 -55.3324 67.4659
rradius 12.493
rwrist 86.1742
rhand -7.01389 12.2903
rfingers 7.12502
rthumb 18.8575 -16.8157
lclavicle 6.4605e-016 -2.06736e-014
lhumerus -1.40049 -12.7817 6.00979
lradius 20.5857
lwrist -39.7794
lhand 4.50996 27.3983
lfingers 7.12502
lthumb 29.9024 55.0032
rfemur -45.4169 8.46458 29.1556
rtibia 52.3839
rfoot -34.7073 -30.531
rtoes 30.5674
lfemur -42.1598 13.0713 -18.1944
ltibia 74.5225
lfoot -8.86966 21.0725
ltoes -17.5512
55
root -2.6897 15.5373 -28.7276 15.6179 1.48246 0.163649
lowerback -2.3026 -0.0577124 3.32563
upperback -7.72267 0.111171 2.34322
thorax -6.75502 -0.0646385 0.584329
lowerneck -4.72484 -16.4897 -12.4349
upperneck 28.9431 -24.6555 8.22222
head 13.1119 -11.5807 1.51387
rclavicle -1.49834e-014 3.97569e-015
rhumerus -93.341 -55.1975 73.2224
rradius 12.5481
rwrist 89.6276
rhand -7.37179 13.0532
rfingers 7.12502
rthumb 18.5132 -16.0859
lclavicle -1.49834e-014 3.97569e-015
lhumerus -0.525037 -14.2156 6.30661
lradius 20.7635
lwrist -38.0885
lhand 4.63854 28.1345
lfingers 7.12502
lthumb 30.0251 55.7173
rfemur -45.0614 9.974 29.3637
rtibia 52.3192
rfoot -33.1142 -29.8713
rtoes 28.7301
lfemur -42.8802 11.9977 -17.8697
ltibia 74.2873
lfoot -10.4138 20.2609
ltoes -17.2687
56
root -2.65281 15.516 -28.6433 15.8332 -1.11752 -0.261279
lowerback -2.19383 -0.150979 3.5461
upperback -8.2077 0.0250799 2.64975
thorax -7.34901 -0.122265 0.795232
lowerneck -1.44777 -15.6386 -13.179
upperneck 27.5481 -23.6588 8.9295
head 11.9866 -11.3723 2.38715
rclavicle 7.42958e-015 -1.11319e-014
rhumerus -90.01 -54.8675 69.6012
rradius 12.4479
rwrist 89.4965
rhand -7.35673 13.1404
rfingers 7.12502
rthumb 18.5277 -15.9973
lclavicle 7.42958e-015 -1.11319e-014
lhumerus -0.877735 -17.094 7.04355
lradius 21.0464
lwrist -36.7611
lhand 5.19163 29.2103
lfingers 7.12502
lthumb 30.5527 56.6961
rfemur -44.7446 11.574 29.3862
rtibia 52.2485
rfoot -31.9429 -29.3396
rtoes 27.127
lfemur -43.6192 10.688 -17.5843
ltibia 74.0302
lfoot -14.7733 18.0294
ltoes -24.5185
57
root -2.61159 15.5022 -28.5522 16.1404 -3.64765 -0.725571
lowerback -2.15869 -0.104162 4.0366
upperback -8.16595 0.0954136 2.73124
thorax -7.3278 -0.119611 0.60481
lowerneck -1.81577 -15.537 -13.3833
upperneck 28.048 -23.5202 8.78926
head 12.2485 -11.3201 2.34188
rclavicle 1.90833e-014 6.36111e-015
rhumerus -88.7576 -54.41 67.5531
rradius 12.355
rwrist 89.3078
rhand -7.38971 12.9558
rfingers 7.12502
rthumb 18.496 -16.1849
lclavicle 1.90833e-014 6.36111e-015
lhumerus -0.768439 -19.6197 7.08817
lradius 20.623
lwrist -37.9472
lhand 3.39598 26.3897
lfingers 7.12502
lthumb 28.8389 54.1811
rfemur -44.5519 12.9433 29.4535
rtibia 52.2091
rfoot -31.7446 -28.4286
rtoes 26.8826
lfemur -44.3793 9.18808 -17.2031
ltibia 73.7162
lfoot -17.6231 17.31
ltoes -29.2956
58
root -2.57288 15.489 -28.4573 16.5962 -6.2322 -1.23867
lowerback -2.26043 0.149187 4.63942
upperback -7.63588 0.403123 2.61888
thorax -6.68886 0.00199034 0.131134
lowerneck -3.97791 -15.9242 -12.7131
upperneck 28.7633 -23.9623 8.41013
head 12.8689 -11.3597 1.82283
rclavicle 1.06785e-014 9.54166e-015
rhumerus -94.5706 -54.0681 73.2995
rradius 12.4609
rwrist 92.4313
rhand -7.28059 13.3216
rfingers 7.12502
rthumb 18.6009 -15.809
lclavicle 1.06785e-014 9.54166e-015
lhumerus 0.45419 -21.6061 6.95781
lradius 20.7903
lwrist -36.4315
lhand 2.95543 25.9052
lfingers 7.12502
lthumb 28.418 53.7676
rfemur -44.4649 14.1554 29.5638
rtibia 52.2073
rfoot -31.9013 -27.077
rtoes 27.2978
lfemur -45.2368 7.6978 -16.692
ltibia 73.3891
lfoot -15.7349 19.847
ltoes -22.022
